<?xml version="1.0" encoding="UTF-8" standalone="no"?>
<svg
   xmlns:dc="http://purl.org/dc/elements/1.1/"
   xmlns:cc="http://creativecommons.org/ns#"
   xmlns:rdf="http://www.w3.org/1999/02/22-rdf-syntax-ns#"
   xmlns:svg="http://www.w3.org/2000/svg"
   xmlns="http://www.w3.org/2000/svg"
   xmlns:sodipodi="http://sodipodi.sourceforge.net/DTD/sodipodi-0.dtd"
   xmlns:inkscape="http://www.inkscape.org/namespaces/inkscape"
   width="300"
   height="70"
   id="svg3235"
   version="1.1"
   inkscape:version="1.0.2 (e86c870879, 2021-01-15, custom)"
   sodipodi:docname="Cash.svg">
  <defs
     id="defs3237" />
  <sodipodi:namedview
     id="base"
     pagecolor="#ffffff"
     bordercolor="#666666"
     borderopacity="1.0"
     inkscape:pageopacity="0.0"
     inkscape:pageshadow="2"
     inkscape:zoom="0.91944041"
     inkscape:cx="56.667329"
     inkscape:cy="-45.384042"
     inkscape:document-units="px"
     inkscape:current-layer="layer1"
     showgrid="false"
     fit-margin-top="0"
     fit-margin-left="0"
     fit-margin-right="0"
     fit-margin-bottom="0"
     inkscape:window-width="1920"
     inkscape:window-height="975"
     inkscape:window-x="0"
     inkscape:window-y="0"
     inkscape:window-maximized="1"
     inkscape:document-rotation="0"
     units="mm"
     width="251px" />
  <metadata
     id="metadata3240">
    <rdf:RDF>
      <cc:Work
         rdf:about="">
        <dc:format>image/svg+xml</dc:format>
        <dc:type
           rdf:resource="http://purl.org/dc/dcmitype/StillImage" />
        <dc:title></dc:title>
      </cc:Work>
    </rdf:RDF>
  </metadata>
  <g
     inkscape:label="Ebene 1"
     inkscape:groupmode="layer"
     id="layer1"
     transform="translate(-311.20017,-454.44816)">
    <g
       id="g44"
       transform="matrix(1.25,0,0,-1.25,457.24613,521.55505)">
      <path
         inkscape:connector-curvature="0"
         d="m 0,0 h -21.309 c -2.966,0 -5.366,2.324 -5.366,5.288 V 37.25 c 0,3.05 2.4,5.379 5.366,5.379 H 0 c 2.968,0 5.296,-2.329 5.296,-5.379 v -8.728 l -10.175,1.286 v 4.581 H -16.505 V 8.263 h 11.626 v 4.839 L 5.296,14.386 V 5.288 C 5.296,2.324 2.968,0 0,0 M 30.455,17.594 H 18.52 V 8.248 H 30.455 Z M 35.185,0 H 13.867 C 10.907,0 8.501,2.323 8.501,5.287 V 20.88 c 0,2.883 2.486,4.961 5.366,4.961 h 16.588 v 8.526 H 18.52 V 29.808 L 8.501,28.522 v 8.736 c 0,3.042 2.406,5.37 5.366,5.37 h 21.318 c 2.961,0 5.283,-2.328 5.283,-5.084 V 5.566 C 40.468,2.323 38.146,0 35.185,0"
         style="fill:#000000;fill-opacity:1;fill-rule:nonzero;stroke:none"
         id="path46" />
    </g>
    <g
       id="g48"
       transform="matrix(1.25,0,0,-1.25,545.19051,521.55505)"
       style="fill:#000000">
      <path
         inkscape:connector-curvature="0"
         d="m 0,0 h -21.313 c -2.961,0 -5.366,2.324 -5.366,5.288 v 9.098 l 10.177,-1.284 V 8.248 h 11.62 v 9.346 h -16.431 c -2.961,0 -5.366,2.327 -5.366,5.283 V 37.25 c 0,3.05 2.405,5.379 5.366,5.379 H 0 c 2.969,0 5.286,-2.329 5.286,-5.379 v -8.728 l -10.168,1.286 v 4.559 h -11.62 V 25.862 H 0 c 2.969,0 5.286,-2.326 5.286,-5.377 V 5.288 C 5.286,2.324 2.969,0 0,0"
         style="fill:#000000;fill-opacity:1;fill-rule:nonzero;stroke:none"
         id="path50" />
    </g>
    <g
       id="g52"
       transform="matrix(1.25,0,0,-1.25,595.78776,521.55505)"
       style="fill:#000000">
      <path
         inkscape:connector-curvature="0"
         d="m 0,0 v 37.738 c 0,2.885 -2.493,4.891 -5.379,4.891 H -21.724 V 52.885 H -31.981 V 0 h 10.257 v 34.389 h 11.456 V 0 Z"
         style="fill:#000000;fill-opacity:1;fill-rule:nonzero;stroke:none"
         id="path54" />
    </g>
    <path
       d="m 330.79177,459.49315 h 77.3807 v 45.88397 h -77.3807 v -45.88397 m 38.69037,11.47099 a 12.896786,11.470991 0 0 1 12.89678,11.471 12.896786,11.470991 0 0 1 -12.89678,11.47097 12.896786,11.470991 0 0 1 -12.89679,-11.47097 12.896786,11.470991 0 0 1 12.89679,-11.471 m -21.49463,-3.82366 a 8.5978581,7.6473272 0 0 1 -8.59788,7.64732 v 15.29465 a 8.5978581,7.6473272 0 0 1 8.59788,7.64735 h 42.98927 a 8.5978581,7.6473272 0 0 1 8.59784,-7.64735 V 474.7878 a 8.5978581,7.6473272 0 0 1 -8.59784,-7.64732 h -42.98927 m -34.39145,7.64732 h 8.59785 v 38.23665 h 68.78287 v 7.64733 h -77.38072 z"
       id="path128"
       style="stroke-width:4.05433" />
  </g>
</svg>
