<?xml version="1.0" encoding="UTF-8" standalone="no"?>
<svg
   xmlns:dc="http://purl.org/dc/elements/1.1/"
   xmlns:cc="http://creativecommons.org/ns#"
   xmlns:rdf="http://www.w3.org/1999/02/22-rdf-syntax-ns#"
   xmlns:svg="http://www.w3.org/2000/svg"
   xmlns="http://www.w3.org/2000/svg"
   xmlns:sodipodi="http://sodipodi.sourceforge.net/DTD/sodipodi-0.dtd"
   xmlns:inkscape="http://www.inkscape.org/namespaces/inkscape"
   viewBox="0 0 570.00001 75"
   version="1.1"
   id="svg22"
   sodipodi:docname="Mastercard.svg"
   width="570"
   height="75"
   inkscape:version="1.0.2 (e86c870879, 2021-01-15, custom)">
  <metadata
     id="metadata26">
    <rdf:RDF>
      <cc:Work
         rdf:about="">
        <dc:format>image/svg+xml</dc:format>
        <dc:type
           rdf:resource="http://purl.org/dc/dcmitype/StillImage" />
        <dc:title>mc_hrz_rgb_pos</dc:title>
      </cc:Work>
    </rdf:RDF>
  </metadata>
  <sodipodi:namedview
     pagecolor="#ffffff"
     bordercolor="#666666"
     borderopacity="1"
     objecttolerance="10"
     gridtolerance="10"
     guidetolerance="10"
     inkscape:pageopacity="0"
     inkscape:pageshadow="2"
     inkscape:window-width="1734"
     inkscape:window-height="845"
     id="namedview24"
     showgrid="false"
     inkscape:zoom="1.4457505"
     inkscape:cx="435.46074"
     inkscape:cy="9.6439581"
     inkscape:window-x="54"
     inkscape:window-y="55"
     inkscape:window-maximized="0"
     inkscape:current-layer="g42"
     inkscape:document-rotation="0" />
  <defs
     id="defs4">
    <style
       id="style2">.cls-1{fill:none;}.cls-2{fill:#231f20;}.cls-3{fill:#ff5f00;}.cls-4{fill:#eb001b;}.cls-5{fill:#f79e1b;}</style>
  </defs>
  <title
     id="title6">mc_hrz_rgb_pos</title>
  <g
     id="g44"
     data-name="Layer 2"
     transform="translate(-33.106738,-17.153924)">
    <g
       id="g42"
       data-name="Layer 1">
      <rect
         class="cls-1"
         width="478.98999"
         height="109.97"
         id="rect28"
         x="0"
         y="0" />
      <path
         class="cls-2"
         d="M 234.40103,77.136184 V 56.746833 c 0,-7.693583 -4.90703,-12.872479 -12.80451,-12.940441 a 12.600619,12.600619 0 0 0 -11.43162,5.790575 11.948159,11.948159 0 0 0 -10.75198,-5.790575 10.765577,10.765577 0 0 0 -9.51504,4.839071 v -4.07787 h -7.0819 v 32.568591 h 7.14986 V 59.098405 c 0,-5.654648 3.12637,-8.645086 7.96546,-8.645086 4.83906,0 7.08189,3.058403 7.08189,8.577121 v 18.105744 h 7.10909 V 59.098405 c 0,-5.654648 3.26229,-8.645086 7.96543,-8.645086 4.70314,0 7.14987,3.058403 7.14987,8.577121 V 77.136184 Z M 340.19459,44.594779 h -11.56756 v -9.868447 h -7.14988 v 9.868447 h -6.60614 V 51.065 h 6.60614 v 14.829854 c 0,7.557655 2.92248,12.056904 11.29571,12.056904 a 16.637711,16.637711 0 0 0 8.84898,-2.514686 l -2.03894,-6.062435 a 13.076371,13.076371 0 0 1 -6.26632,1.835041 c -3.53415,0 -4.70314,-2.174863 -4.70314,-5.437159 V 51.065 H 340.181 Z m 60.39326,-0.815574 a 9.5965882,9.5965882 0 0 0 -8.57713,4.771108 v -3.955534 h -7.01393 v 32.541405 h 7.0819 V 58.89451 c 0,-5.43716 2.31079,-8.373227 6.94598,-8.373227 a 11.540372,11.540372 0 0 1 4.43127,0.815574 l 2.17488,-6.674114 a 15.128898,15.128898 0 0 0 -5.04297,-0.883538 z m -91.30352,3.398225 a 24.331293,24.331293 0 0 0 -13.28027,-3.398225 c -8.23729,0 -13.5929,3.955534 -13.5929,10.412162 0,5.314825 3.94195,8.57712 11.22775,9.596588 l 3.33025,0.475752 c 3.87398,0.543715 5.72261,1.563183 5.72261,3.398225 0,2.514687 -2.58265,3.955533 -7.42172,3.955533 a 17.344541,17.344541 0 0 1 -10.87432,-3.398224 l -3.22152,5.505124 a 23.474939,23.474939 0 0 0 14.09584,4.227393 c 9.39269,0 14.84344,-4.431287 14.84344,-10.616056 0,-5.722611 -4.29534,-8.713049 -11.36367,-9.732516 l -3.33026,-0.475753 c -3.05839,-0.407787 -5.51871,-1.019467 -5.51871,-3.194331 0,-2.378757 2.31078,-3.806013 6.19837,-3.806013 a 20.973846,20.973846 0 0 1 10.14029,2.786546 z m 189.64816,-3.398225 a 9.5965882,9.5965882 0 0 0 -8.57713,4.771108 v -3.955534 h -7.01393 v 32.541405 h 7.0819 V 58.89451 c 0,-5.43716 2.3108,-8.373227 6.94598,-8.373227 a 11.540372,11.540372 0 0 1 4.43128,0.815574 l 2.17487,-6.674114 a 15.128898,15.128898 0 0 0 -5.04297,-0.883538 z m -91.19478,17.086276 c 0,9.868446 6.87801,17.086277 17.35813,17.086277 a 17.045498,17.045498 0 0 0 11.70349,-3.88757 l -3.39823,-5.722612 a 14.299732,14.299732 0 0 1 -8.50915,2.922474 c -5.65465,0 -9.80049,-4.159428 -9.80049,-10.412162 0,-6.252735 4.15944,-10.344197 9.80049,-10.412162 a 14.299732,14.299732 0 0 1 8.50915,2.922473 l 3.39823,-5.722609 a 17.045498,17.045498 0 0 0 -11.70349,-3.88757 c -10.48012,0 -17.35813,7.217829 -17.35813,17.086276 z m 66.30617,0 v -16.31148 h -7.08189 v 3.955534 a 12.342353,12.342353 0 0 0 -10.27625,-4.771109 c -9.12083,0 -16.31147,7.149865 -16.31147,17.086276 0,9.93641 7.14986,17.086278 16.31147,17.086278 a 12.342353,12.342353 0 0 0 10.27625,-4.771109 v 3.941942 h 7.08189 z m -26.34304,0 c 0,-5.722611 3.73805,-10.412162 9.86844,-10.412162 5.85854,0 9.80049,4.499251 9.80049,10.412162 0,5.912912 -3.94195,10.412162 -9.80049,10.412162 -6.13039,0 -9.86844,-4.703143 -9.86844,-10.412162 z M 362.25587,43.779205 c -9.51504,0 -16.20275,6.945972 -16.20275,17.086276 0,10.344197 6.94599,17.086277 16.6785,17.086277 a 19.777672,19.777672 0 0 0 13.34823,-4.567214 l -3.4662,-5.246861 a 15.509499,15.509499 0 0 1 -9.51503,3.398225 c -4.5672,0 -8.71304,-2.106899 -9.73251,-7.965438 h 24.16817 c 0.0679,-0.88354 0.13593,-1.767079 0.13593,-2.718582 0,-10.140304 -6.33429,-17.086277 -15.45514,-17.086277 z m -0.13593,6.334292 c 4.56721,0 7.48969,2.85451 8.2373,7.897475 h -16.86879 c 0.7476,-4.703144 3.60212,-7.897475 8.64509,-7.897475 z M 539.71118,60.865481 V 31.518409 h -7.08189 V 48.53672 a 12.342353,12.342353 0 0 0 -10.27623,-4.771109 c -9.12084,0 -16.31149,7.149867 -16.31149,17.086277 0,9.936411 7.14987,17.086277 16.31149,17.086277 a 12.342353,12.342353 0 0 0 10.27623,-4.771109 v 3.941942 h 7.08189 z m 8.27808,13.266671 a 2.0797139,2.0797139 0 0 1 0.81558,0.163115 2.1340855,2.1340855 0 0 1 0.66605,0.448566 2.0797139,2.0797139 0 0 1 0.44856,0.65246 2.0253422,2.0253422 0 0 1 0,1.603962 2.0933068,2.0933068 0 0 1 -0.44856,0.65246 2.1748641,2.1748641 0 0 1 -0.66605,0.448565 2.0389352,2.0389352 0 0 1 -0.81558,0.163115 2.1068995,2.1068995 0 0 1 -1.95737,-1.26414 2.0389352,2.0389352 0 0 1 0,-1.603962 2.0661208,2.0661208 0 0 1 1.11461,-1.101026 2.1340855,2.1340855 0 0 1 0.86995,-0.163115 z m 0,3.670085 a 1.5359978,1.5359978 0 0 0 0.62529,-0.122333 1.6447411,1.6447411 0 0 0 0.50291,-0.339823 1.6175553,1.6175553 0 0 0 0,-2.283606 1.6039623,1.6039623 0 0 0 -0.50291,-0.339824 1.5631837,1.5631837 0 0 0 -0.62529,-0.122332 1.6175553,1.6175553 0 0 0 -0.63886,0.122332 1.6175553,1.6175553 0 0 0 -0.51653,2.62343 1.6175553,1.6175553 0 0 0 0.51653,0.339823 1.6039623,1.6039623 0 0 0 0.66605,0.122333 z m 0.1223,-2.582652 a 0.86994569,0.86994569 0 0 1 0.57091,0.163115 0.54371604,0.54371604 0 0 1 0.20389,0.448565 0.51653024,0.51653024 0 0 1 -0.16312,0.394194 0.76120246,0.76120246 0 0 1 -0.44857,0.190301 l 0.62528,0.720424 h -0.48935 l -0.58448,-0.720424 h -0.19031 v 0.720424 h -0.40778 v -1.903006 z m -0.47575,0.353414 v 0.516531 h 0.47575 a 0.46215864,0.46215864 0 0 0 0.25826,0 0.21748641,0.21748641 0 0 0 0.0952,-0.1903 0.21748641,0.21748641 0 0 0 -0.0952,-0.190301 0.46215864,0.46215864 0 0 0 -0.25826,0 z M 513.39533,60.865481 c 0,-5.722611 3.73805,-10.412162 9.86844,-10.412162 5.85856,0 9.8005,4.499251 9.8005,10.412162 0,5.912912 -3.94194,10.412162 -9.8005,10.412162 -6.13039,0 -9.86844,-4.703143 -9.86844,-10.412162 z m -239.09914,0 v -16.31148 h -7.08189 v 3.955534 a 12.342353,12.342353 0 0 0 -10.23545,-4.73033 c -9.12084,0 -16.31149,7.149865 -16.31149,17.086276 0,9.936411 7.14988,17.086277 16.31149,17.086277 a 12.342353,12.342353 0 0 0 10.27623,-4.771109 v 3.941942 h 7.0819 z m -26.34303,0 c 0,-5.722611 3.73805,-10.412162 9.86844,-10.412162 5.85854,0 9.80048,4.499251 9.80048,10.412162 0,5.912912 -3.94194,10.412162 -9.80048,10.412162 -6.13039,0 -9.86844,-4.68955 -9.86844,-10.412162 z"
         id="path30"
         style="stroke-width:1.35929" />
      <g
         id="g40"
         data-name="&lt;Group&gt;">
        <rect
           class="cls-3"
           x="80.459999"
           y="26.68"
           width="31.5"
           height="56.610001"
           id="rect32" />
        <path
           id="path34"
           data-name="&lt;Path&gt;"
           class="cls-4"
           d="m 82.46,55 a 35.94,35.94 0 0 1 13.75,-28.3 36,36 0 1 0 0,56.61 A 35.94,35.94 0 0 1 82.46,55 Z" />
        <path
           class="cls-5"
           d="M 154.46,55 A 36,36 0 0 1 96.21,83.3 36,36 0 0 0 96.21,26.69 36,36 0 0 1 154.46,55 Z"
           id="path36" />
        <path
           class="cls-5"
           d="m 151,77.29 v -1.16 h 0.47 V 75.9 h -1.17 v 0.24 h 0.47 v 1.16 z m 2.31,0 v -1.4 H 153 l -0.42,1 -0.42,-1 h -0.37 v 1.4 H 152 v -1.05 l 0.39,0.91 h 0.27 l 0.39,-0.91 v 1.06 z"
           id="path38" />
      </g>
    </g>
  </g>
</svg>
