<?xml version="1.0" standalone="no"?>
<!DOCTYPE svg PUBLIC "-//W3C//DTD SVG 20010904//EN"
 "http://www.w3.org/TR/2001/REC-SVG-20010904/DTD/svg10.dtd">
<svg version="1.0" xmlns="http://www.w3.org/2000/svg"
 width="303.000000pt" height="291.000000pt" viewBox="0 0 303.000000 291.000000"
 preserveAspectRatio="xMidYMid meet">

<g transform="translate(0.000000,291.000000) scale(0.100000,-0.100000)"
fill="#000000" stroke="none">
<path d="M510 2669 c-119 -20 -227 -106 -271 -214 l-24 -60 0 -975 0 -975 23
-57 c33 -81 106 -158 184 -194 l63 -29 968 -3 c1070 -3 1028 -5 1119 61 59 42
92 82 126 154 l27 58 3 940 c3 972 1 1029 -38 1104 -52 102 -156 173 -276 191
-87 12 -1827 11 -1904 -1z m1010 -747 l45 -87 100 -14 c55 -8 102 -16 104 -18
2 -1 -30 -36 -72 -75 l-76 -73 18 -102 c10 -57 16 -103 14 -103 -2 0 -45 21
-95 46 l-91 46 -89 -47 c-49 -26 -91 -45 -94 -43 -2 2 3 39 11 82 24 123 24
123 -55 194 -39 35 -70 67 -70 71 0 4 45 14 101 21 l101 13 46 93 c25 51 49
91 52 88 3 -3 25 -45 50 -92z m-763 -752 c23 -58 48 -116 54 -130 10 -23 15
-15 63 105 47 118 54 130 79 133 l27 3 0 -235 0 -236 -25 0 -25 0 -2 161 -3
162 -40 -99 c-36 -88 -43 -99 -65 -99 -22 0 -29 11 -62 90 l-37 90 -3 -150 -3
-150 -27 -3 -28 -3 0 236 0 236 27 -3 c23 -3 31 -15 70 -108z m490 86 l28 -24
0 -186 c0 -178 -1 -186 -22 -208 -17 -16 -37 -23 -81 -26 -55 -4 -62 -2 -93
26 l-34 30 0 177 0 177 33 29 c27 24 41 29 87 29 43 0 60 -5 82 -24z m132 -13
c6 -21 24 -95 42 -165 17 -71 34 -128 38 -128 3 0 16 39 29 88 67 254 62 242
88 242 13 0 24 -6 24 -12 0 -7 -20 -89 -45 -183 -76 -284 -73 -277 -97 -273
-19 3 -28 29 -79 223 -33 121 -59 226 -59 233 0 6 11 12 25 12 20 0 26 -7 34
-37z m321 -199 l0 -235 -22 3 c-23 3 -23 3 -26 223 -1 121 0 225 2 232 3 7 15
13 26 13 20 0 20 -5 20 -236z m290 206 l0 -30 -85 0 -85 0 0 -70 0 -70 85 0
85 0 0 -30 0 -30 -85 0 -85 0 0 -75 0 -75 90 0 90 0 0 -30 0 -31 -117 3 -118
3 -3 220 c-1 121 0 225 2 232 4 10 36 13 116 13 l110 0 0 -30z m100 -154 c0
-163 2 -186 18 -206 20 -25 75 -31 96 -10 7 7 13 82 16 203 l5 192 28 3 27 3
0 -186 c0 -200 -7 -238 -51 -269 -27 -19 -97 -21 -134 -4 -51 23 -59 57 -63
251 -2 98 -1 184 2 192 3 8 17 15 31 15 l25 0 0 -184z"/>
<path d="M1426 1891 l-39 -78 -83 -13 c-46 -6 -84 -15 -84 -19 0 -3 27 -31 61
-61 l61 -55 -15 -85 c-8 -47 -14 -86 -12 -88 2 -2 37 15 78 38 l75 41 73 -41
c41 -22 77 -40 80 -40 3 0 -1 39 -9 86 l-14 86 62 63 62 63 -86 12 -87 12 -40
79 c-21 43 -41 79 -42 79 -2 0 -20 -35 -41 -79z m60 -147 c35 -20 64 -37 64
-39 0 -4 -126 -75 -134 -75 -3 0 -6 34 -6 75 0 41 3 75 6 75 3 0 35 -16 70
-36z"/>
<path d="M1440 1705 l0 -36 33 17 c17 9 33 17 34 18 2 2 -13 10 -32 19 l-35
17 0 -35z"/>
<path d="M1114 1209 c-17 -19 -19 -38 -19 -166 0 -140 1 -145 24 -164 31 -26
57 -24 86 6 24 23 25 29 25 155 0 159 -11 189 -71 190 -14 0 -34 -9 -45 -21z"/>
</g>
</svg>
